<?xml version="1.0" standalone="no"?>
<!DOCTYPE svg PUBLIC "-//W3C//DTD SVG 20010904//EN"
 "http://www.w3.org/TR/2001/REC-SVG-20010904/DTD/svg10.dtd">
<svg version="1.0" xmlns="http://www.w3.org/2000/svg"
 width="100%" height="100%" viewBox="0 0 500.000000 500.000000"
 preserveAspectRatio="xMidYMid meet">

<g transform="translate(0.000000,500.000000) scale(0.100000,-0.100000)"
fill="#000000" stroke="none">
<path d="M2290 3699 c-231 -38 -358 -74 -516 -149 -327 -153 -575 -406 -672
-685 -73 -208 -77 -420 -13 -623 79 -247 271 -481 518 -633 45 -27 73 -51 73
-61 0 -27 -47 -146 -87 -218 -47 -87 -108 -172 -182 -253 -65 -72 -68 -79 -48
-95 15 -13 82 7 262 76 202 77 455 203 589 294 31 21 41 23 93 17 98 -12 332
-9 444 6 481 64 877 302 1089 655 178 297 188 670 24 970 -160 292 -462 522
-839 637 -94 28 -146 39 -275 58 -105 16 -374 18 -460 4z"/>
</g>
</svg>
