<svg xmlns="http://www.w3.org/2000/svg" xmlns:xlink="http://www.w3.org/1999/xlink" width="30" height="30" viewBox="0 0 30 30"><defs><clipPath id="a"><rect width="30" height="30" fill="#fff"/></clipPath></defs><g clip-path="url(#a)"><g transform="translate(3.424 5.484)"><path d="M111.74,72.974a.9.9,0,0,0-.662.285.975.975,0,0,0,0,1.359.9.9,0,0,0,.662.285.961.961,0,0,0,0-1.92Z" transform="translate(-106.843 -65.93)" fill="#fff"/><path d="M122.121,72.965a.892.892,0,0,0-.662.285.975.975,0,0,0,0,1.359.892.892,0,0,0,.662.285.918.918,0,0,0,.674-.285.962.962,0,0,0,0-1.359A.918.918,0,0,0,122.121,72.965Z" transform="translate(-109.213 -65.928)" fill="#fff"/><path d="M129.044,72.974a.893.893,0,0,0-.662.285.975.975,0,0,0,0,1.359.9.9,0,0,0,.662.285.961.961,0,0,0,0-1.92Z" transform="translate(-110.793 -65.93)" fill="#fff"/><path d="M126.3,63.847H108.2a2.532,2.532,0,0,0-2.523,2.523V76.608a2.532,2.532,0,0,0,2.523,2.523h7.109s1.372,3.748,1.873,3.748,1.985-3.748,1.985-3.748H126.3a2.532,2.532,0,0,0,2.525-2.523V66.37A2.532,2.532,0,0,0,126.3,63.847ZM112.4,73.3a2.219,2.219,0,0,1-2.736.186h-.017v.285h-1.36V67.848h1.36v2.265h.017a2.238,2.238,0,0,1,1.427-.44,1.782,1.782,0,0,1,1.312.648,2.365,2.365,0,0,1,.53,1.523A1.944,1.944,0,0,1,112.4,73.3Zm2.925.521h-1.386V70.151a.883.883,0,0,0-.669-.959V67.725a2.336,2.336,0,0,1,2.055,2.472Zm5.439-1.125a2.162,2.162,0,0,1-.51.714,2.34,2.34,0,0,1-.759.474,2.5,2.5,0,0,1-.906.166,2.437,2.437,0,0,1-.892-.166,2.4,2.4,0,0,1-.759-.474,2.254,2.254,0,0,1-.521-.714,2.077,2.077,0,0,1,0-1.671,2.269,2.269,0,0,1,.521-.714,2.4,2.4,0,0,1,.759-.474,2.436,2.436,0,0,1,.892-.164,2.5,2.5,0,0,1,.906.164,2.341,2.341,0,0,1,.759.474,2.113,2.113,0,0,1,.51,2.4Zm5.449.589a2.7,2.7,0,0,1-.661,2.117,2.353,2.353,0,0,1-2,.465V74.79a1.151,1.151,0,0,0,1.312-1.025V73.49h-.017a1.535,1.535,0,0,1-1.365.584,1.748,1.748,0,0,1-1.369-.589,2.279,2.279,0,0,1-.491-1.544,2.557,2.557,0,0,1,.547-1.721,1.877,1.877,0,0,1,1.48-.624,1.6,1.6,0,0,1,1.2.428h.017V69.7h1.35Z" transform="translate(-105.672 -63.847)" fill="#fff"/></g></g></svg>