<svg xmlns="http://www.w3.org/2000/svg" xmlns:xlink="http://www.w3.org/1999/xlink" width="30" height="30" viewBox="0 0 30 30"><defs><clipPath id="a"><rect width="30" height="30"/></clipPath></defs><g clip-path="url(#a)"><g transform="translate(4.412 4.411)"><path d="M21.156,6.227a7.739,7.739,0,0,0-.492-2.569,5.425,5.425,0,0,0-3.1-3.1A7.759,7.759,0,0,0,15,.066C13.862.012,13.5,0,10.627,0S7.391.012,6.262.062A7.741,7.741,0,0,0,3.693.554,5.168,5.168,0,0,0,1.814,1.779,5.214,5.214,0,0,0,.594,3.653,7.76,7.76,0,0,0,.1,6.223C.048,7.356.035,7.716.035,10.592S.048,13.827.1,14.957A7.739,7.739,0,0,0,.59,17.526a5.424,5.424,0,0,0,3.1,3.1,7.76,7.76,0,0,0,2.569.492c1.129.05,1.489.062,4.365.062s3.235-.012,4.365-.062a7.737,7.737,0,0,0,2.569-.492,5.417,5.417,0,0,0,3.1-3.1,7.765,7.765,0,0,0,.492-2.569c.05-1.13.062-1.489.062-4.365S21.206,7.356,21.156,6.227Zm-1.907,8.647a5.805,5.805,0,0,1-.364,1.965,3.513,3.513,0,0,1-2.011,2.011,5.826,5.826,0,0,1-1.965.364c-1.117.05-1.452.062-4.278.062s-3.165-.012-4.278-.062a5.8,5.8,0,0,1-1.965-.364,3.259,3.259,0,0,1-1.216-.79,3.293,3.293,0,0,1-.79-1.216,5.827,5.827,0,0,1-.364-1.965c-.05-1.117-.062-1.452-.062-4.278s.012-3.165.062-4.278a5.8,5.8,0,0,1,.364-1.965A3.219,3.219,0,0,1,3.175,3.14a3.288,3.288,0,0,1,1.216-.79,5.83,5.83,0,0,1,1.965-.364c1.117-.05,1.452-.062,4.278-.062s3.165.012,4.278.062a5.805,5.805,0,0,1,1.965.364,3.257,3.257,0,0,1,1.216.79,3.292,3.292,0,0,1,.79,1.216,5.829,5.829,0,0,1,.364,1.965c.05,1.117.062,1.452.062,4.278S19.3,13.757,19.249,14.874Zm0,0" transform="translate(-0.035 0)" fill="#fff"/><path d="M15.2,9.728a5.441,5.441,0,1,0,5.441,5.441A5.442,5.442,0,0,0,15.2,9.728Zm0,8.97a3.529,3.529,0,1,1,3.529-3.529A3.53,3.53,0,0,1,15.2,18.7Zm0,0" transform="translate(-4.613 -4.577)" fill="#fff"/><path d="M30.862,8.194a1.27,1.27,0,1,1-1.27-1.27A1.27,1.27,0,0,1,30.862,8.194Zm0,0" transform="translate(-13.345 -3.258)" fill="#fff"/></g></g></svg>