<svg xmlns="http://www.w3.org/2000/svg" xmlns:xlink="http://www.w3.org/1999/xlink" width="30" height="30" viewBox="0 0 30 30"><defs><clipPath id="a"><rect width="30" height="30" fill="#fff"/></clipPath></defs><g clip-path="url(#a)"><path d="M22.986,2.191A2.94,2.94,0,0,0,20.918.122c-1.837-.5-9.183-.5-9.183-.5S4.388-.38,2.552.1A3,3,0,0,0,.483,2.191,30.982,30.982,0,0,0,0,7.836a30.868,30.868,0,0,0,.483,5.645A2.941,2.941,0,0,0,2.552,15.55c1.856.5,9.183.5,9.183.5s7.346,0,9.183-.483A2.941,2.941,0,0,0,22.987,13.5a30.992,30.992,0,0,0,.483-5.645A29.41,29.41,0,0,0,22.986,2.191ZM9.4,11.355V4.318L15.5,7.836Zm0,0" transform="translate(3.265 7.165)" fill="#fff"/></g></svg>