<?xml version="1.0" standalone="no"?>
<!DOCTYPE svg PUBLIC "-//W3C//DTD SVG 20010904//EN"
 "http://www.w3.org/TR/2001/REC-SVG-20010904/DTD/svg10.dtd">
<svg version="1.0" xmlns="http://www.w3.org/2000/svg"
 width="128.000000pt" height="128.000000pt" viewBox="0 0 128.000000 128.000000"
 preserveAspectRatio="xMidYMid meet">

<g transform="translate(0.000000,128.000000) scale(0.100000,-0.100000)"
fill="#000000" stroke="none">
<path d="M310 1269 c-80 -13 -173 -62 -215 -113 -54 -66 -74 -122 -86 -243
-16 -155 -6 -591 15 -660 35 -113 118 -195 235 -231 48 -15 101 -17 386 -17
300 0 335 2 389 19 107 35 191 120 223 224 16 50 18 101 18 402 0 337 -1 346
-23 402 -48 120 -152 198 -289 218 -83 12 -577 11 -653 -1z m669 -120 c64 -13
125 -58 152 -110 27 -54 38 -172 38 -399 0 -325 -18 -410 -100 -470 -66 -47
-112 -52 -459 -48 -302 3 -317 4 -356 25 -22 12 -55 37 -71 57 -56 62 -58 81
-58 436 0 364 3 385 69 449 66 64 105 70 438 71 175 0 318 -4 347 -11z"/>
<path d="M935 1035 c-50 -49 -20 -125 50 -125 69 0 100 76 50 125 -13 14 -36
25 -50 25 -14 0 -37 -11 -50 -25z"/>
<path d="M567 960 c-298 -75 -344 -477 -69 -612 59 -29 76 -33 147 -32 99 0
172 31 235 100 65 70 85 123 85 224 0 101 -20 154 -85 224 -75 81 -208 122
-313 96z m191 -143 c126 -83 126 -271 0 -354 -55 -37 -148 -44 -204 -15 -165
85 -164 296 1 386 48 26 152 18 203 -17z"/>
</g>
</svg>
