<?xml version='1.0' encoding='iso-8859-1'?>
<svg version="1.1" xmlns="http://www.w3.org/2000/svg" viewBox="0 0 60 60" xmlns:xlink="http://www.w3.org/1999/xlink" enable-background="new 0 0 60 60">
  <g>
    <g>
      <path d="m45,21.5h-5v-9c0-2.209-1.791-4-4-4h-29c-0.552,0-1,0.448-1,1 0,0.552 0.448,1 1,1h29c1.105,0 2,0.895 2,2v9h-8c-2.209,0-4,1.791-4,4 0,2.209 1.791,4 4,4h8.231c0.911,4.007 4.487,7 8.769,7 0.552,0 1-0.448 1-1 0-0.552-0.448-1-1-1-3.866,0-7-3.134-7-7h-10c-1.105,0-2-0.895-2-2 0-1.105 0.895-2 2-2h15c7.18,0 13,5.82 13,13 0,7.18-5.82,13-13,13h-25c-1.105,0-2-0.895-2-2s0.895-2 2-2h12v-2h-16c-1.105,0-2-0.895-2-2h22c2.209,0 4-1.791 4-4 0-0.552-0.448-1-1-1-0.552,0-1,0.448-1,1 0,1.105-0.895,2-2,2h-32c-1.105,0-2-0.895-2-2v-28c0-0.552-0.448-1-1-1s-1,0.448-1,1v28c0,2.209 1.791,4 4,4h8c0,2.209 1.791,4 4,4h0.555c-0.344,0.59-0.555,1.268-0.555,2 0,2.209 1.791,4 4,4h25c8.284,0 15-6.716 15-15 0-8.284-6.716-15-15-15zm-12-5c0.552,0 1-0.448 1-1 0-0.552-0.448-1-1-1h-26c-0.552,0-1,0.448-1,1 0,0.552 0.448,1 1,1h26z"/>
    </g>
  </g>
  <g>
    <g>
      <path d="m7,22.5h14c0.552,0 1-0.448 1-1 0-0.552-0.448-1-1-1h-14c-0.552,0-1,0.448-1,1 0,0.552 0.448,1 1,1zm26,11h-26c-0.552,0-1,0.448-1,1 0,0.552 0.448,1 1,1h26c0.552,0 1-0.448 1-1 0-0.552-0.448-1-1-1z"/>
    </g>
  </g>
</svg>
