<?xml version="1.0" standalone="no"?>
<!DOCTYPE svg PUBLIC "-//W3C//DTD SVG 20010904//EN"
 "http://www.w3.org/TR/2001/REC-SVG-20010904/DTD/svg10.dtd">
<svg version="1.0" xmlns="http://www.w3.org/2000/svg"
 width="100%" height="100%" viewBox="0 0 16.000000 16.000000"
 preserveAspectRatio="xMidYMid meet">

<g transform="translate(0.000000,16.000000) scale(0.100000,-0.100000)"
fill="#000000" stroke="none">
<path d="M0 150 c0 -5 5 -10 10 -10 6 0 10 -12 10 -27 0 -63 9 -73 61 -73 38
0 51 4 63 22 34 48 17 68 -60 68 -30 0 -46 5 -50 15 -7 17 -34 21 -34 5z m140
-52 c0 -28 -18 -39 -56 -36 -32 2 -40 7 -42 26 -3 20 0 22 47 22 34 0 51 -4
51 -12z"/>
<path d="M36 22 c-3 -6 -1 -14 5 -17 15 -10 25 3 12 16 -7 7 -13 7 -17 1z"/>
<path d="M105 19 c-10 -15 3 -25 16 -12 7 7 7 13 1 17 -6 3 -14 1 -17 -5z"/>
</g>
</svg>
